<svg width="656" height="113" viewBox="0 0 656 113" fill="none" xmlns="http://www.w3.org/2000/svg">
<g clip-path="url(#clip0_704_1184)">
<path d="M106.037 57.1056C106.037 64.5457 109.816 66.9737 114.771 66.9737C119.727 66.9737 123.343 64.5457 123.343 57.1056C123.343 49.6655 119.727 47.2375 114.771 47.2375C109.816 47.2375 106.037 49.6628 106.037 57.1056ZM114.084 90.43C102.341 90.43 95.7606 86.2227 95.7606 76.6803H107.137C106.975 81.4925 109.981 82.4232 114.774 82.4232C119.567 82.4232 123.225 81.1285 123.225 75.4266V72.15C121.072 74.2523 117.904 75.6675 113.798 75.6675C102.746 75.6675 95.7578 69.6015 95.7578 57.1056C95.7578 44.6096 102.99 38.1385 112.701 38.1385C116.927 38.1385 120.582 39.7974 123.225 42.2227V38.7846H133.584V75.4239C133.584 86.2227 126.638 90.4272 114.081 90.4272" fill="#005EFF"/>
<path d="M151.789 67.3788C155.446 67.3788 158.859 65.8815 160.36 62.2846V56.4623C158.573 58.362 156.337 59.7772 152.762 60.5054L150.73 60.9105C147.966 61.4771 146.83 62.2846 146.83 64.2254C146.83 66.1662 148.78 67.3788 151.789 67.3788ZM160.36 71.7476C157.517 74.6601 154.266 76.0753 149.349 76.0753C141.589 76.0753 136.105 71.6682 136.105 64.2254C136.105 58.1595 139.436 55.2059 150.04 53.4266L155.85 52.4576C159.425 51.8499 160.36 51.1218 160.36 49.504C160.36 47.8862 159.711 46.753 154.387 46.753C150.405 46.753 147.317 47.8862 147.724 51.6856H136.999C136.268 41.8175 145.491 38.1385 154.308 38.1385C164.667 38.1385 170.681 42.1405 170.681 51.6446V75.4239H160.36V71.7449V71.7476Z" fill="#005EFF"/>
<path d="M184.211 24.4299H173.852V75.4266H184.211V24.4299Z" fill="#005EFF"/>
<path d="M202.413 67.3788C206.07 67.3788 209.483 65.8815 210.985 62.2846V56.4623C209.197 58.362 206.961 59.7772 203.386 60.5054L201.354 60.9105C198.59 61.4771 197.455 62.2846 197.455 64.2254C197.455 66.1662 199.404 67.3788 202.41 67.3788M210.987 71.7476C208.144 74.6601 204.893 76.0753 199.976 76.0753C192.216 76.0753 186.732 71.6682 186.732 64.2254C186.732 58.1595 190.063 55.2059 200.667 53.4266L206.477 52.4576C210.052 51.8499 210.987 51.1218 210.987 49.504C210.987 47.8862 210.338 46.753 205.014 46.753C201.032 46.753 197.944 47.8862 198.351 51.6856H187.626C186.895 41.8175 196.118 38.1385 204.935 38.1385C215.294 38.1385 221.308 42.1405 221.308 51.6446V75.4239H210.987V71.7449V71.7476Z" fill="#005EFF"/>
<path d="M240.372 65.5584L233.505 75.4265H221.072L234.074 57.1876L221.276 38.7872H233.667L240.493 48.7758L247.318 38.7872H259.548L246.548 57.1466L259.468 75.4265H247.118L240.372 65.5584Z" fill="#005EFF"/>
<path d="M297 38.7872L281.561 80.8875C279.653 86.0638 277.662 90.4326 271.769 90.4326C269.329 90.4326 266.651 89.866 264.049 89.0968V79.7543L265.919 80.3209C269.657 81.4541 271.323 80.5645 272.258 77.975L273.273 75.1446L259.215 38.7872H270.55L278.228 61.1513L286.192 38.7872H297Z" fill="#005EFF"/>
<path d="M14.7262 53.7496C22.847 53.7496 29.4525 47.1745 29.4525 39.0911C29.4525 31.0078 22.847 24.4299 14.7262 24.4299C6.6055 24.4299 0 31.005 0 39.0884C0 47.1718 6.6055 53.7468 14.7262 53.7468" fill="#005EFF"/>
<path d="M51.5798 61.113C43.459 61.113 36.8535 67.6881 36.8535 75.7715C36.8535 83.8549 43.459 90.4299 51.5798 90.4299C59.7005 90.4299 66.306 83.8549 66.306 75.7715C66.306 67.6881 59.7005 61.113 51.5798 61.113Z" fill="#005EFF"/>
<path d="M29.0758 79.0782C30.7918 72.7248 29.0758 67.1051 35.9783 60.2398C42.878 53.3718 48.51 55.0827 54.8927 53.3746C55.3878 53.2596 55.8773 53.12 56.353 52.9585C56.3585 52.9585 56.3613 52.9585 56.364 52.9557C62.1445 50.9739 66.308 45.5074 66.308 39.0911C66.3053 31.005 59.6997 24.4299 51.579 24.4299C45.133 24.4299 39.6413 28.5743 37.6503 34.3282C37.6503 34.3282 37.6475 34.3391 37.6448 34.3446C37.4825 34.8154 37.3423 35.2999 37.2295 35.7899C35.5135 42.1405 37.1855 47.7986 30.338 54.6146C23.4905 61.4306 17.7925 59.7799 11.4125 61.488C10.9175 61.603 10.4335 61.7399 9.9605 61.9014C9.955 61.9014 9.9495 61.9041 9.94675 61.9069C4.1635 63.8887 0 69.3552 0 75.7715C0 83.8548 6.6055 90.4299 14.7262 90.4299C21.1723 90.4299 26.664 86.2856 28.655 80.5317C28.655 80.5317 28.655 80.5317 28.655 80.529C28.7568 80.2361 28.8503 79.9377 28.9328 79.6366C28.9823 79.4532 29.029 79.2643 29.073 79.0782" fill="#005EFF"/>
</g>
<path d="M628.518 31.4556L632.596 19.963L637.907 22.1426L634.827 31.363L650.853 30.989L650.967 36.3845L633.056 37.0505C630.721 44.5685 628.625 52.1151 627.627 60.0213C627.121 64.0243 626.846 72.5253 628.129 73.4655C629.609 74.5481 632.974 70.7161 635.023 68.2267C640.912 61.0648 646.07 53.5966 651.484 45.9218L655.569 48.7923L641.111 68.9781C637.743 73.6827 630.111 81.5106 625.21 78.9642C622.658 77.6394 622.205 74.4911 621.756 71.5779C616.566 77.3189 610.909 82.5434 603.655 78.1237C594.519 72.5537 595.4 61.6773 595.054 51.1606L578.19 78.6152L573.047 75.7697L575.613 57.97C570.213 64.5585 565.208 71.4925 558.125 75.6842C554.832 77.6323 551.535 78.3873 547.71 78.3552C541.86 78.3054 537.337 74.9719 535.455 69.288C530.376 75.7305 523.956 82.8639 517.215 77.9706C510.981 73.2304 511.334 64.359 511.369 56.1643L497.896 79.0995L492.395 76.7134L495.464 50.7048L477.767 78.7719L472.366 75.8409L474.744 59.423C469.967 65.7337 464.057 75.2853 457.299 78.0276C455.078 78.9286 452.526 78.6935 450.744 77.2441C446.299 72.2617 448.776 63.3975 449.546 56.1608L440.068 69.1455C438.036 71.9305 435.848 74.3309 433.021 76.343C430.907 77.8495 428.294 77.7249 426.159 76.0759C424.024 74.427 422.876 71.7275 422.744 68.9532L422.409 61.8661C417.861 66.9054 414.022 71.9091 409.16 76.2861C407.281 77.9777 405.225 79.4557 402.733 79.6337C393.872 80.8019 393.369 69.0494 393.9 60.4878C388.938 65.9439 384.411 71.261 379.018 76.0866C376.587 78.2626 373.483 79.3951 370.446 77.6572C366.179 75.2141 366.09 67.518 367.098 62.297L368.731 53.853C360.49 59.74 353.207 63.5435 343.12 64.8683C345.508 68.2587 347.533 71.3429 348.36 75.1749C349.964 82.6111 349.258 93.1919 342.813 97.4156C338.575 100.194 333.56 98.8117 331.125 94.5737C329.147 91.1441 328.758 87.4866 329.122 83.4515C329.935 74.4306 331.499 65.805 333.567 56.9835C336.504 44.4403 340.632 28.724 349.112 19.3647C351.079 17.1923 353.393 15.7179 356.298 16.0455C358.847 16.3305 361.716 17.6482 362.703 20.4652C363.776 23.5173 363.416 26.9576 362.258 30.0382C358.401 40.3091 350.338 49.9035 340.065 54.3587L338.814 59.7684C352.06 59.4444 361.153 53.9812 370.994 46.0572L376.02 47.2431C374.684 53.4078 370.274 70.7054 373.507 72.3899C374.915 73.1236 377.186 70.7517 379.114 68.7288C384.907 62.6603 390.318 56.5525 395.789 50.0922C397.739 41.8298 400.028 28.0972 403.728 21.5194C405.72 17.9794 410.147 15.9138 413.983 17.6945C417.055 19.119 418.064 22.7409 417.857 25.9675C417.187 36.4878 408.625 44.6148 401.361 51.9406C400.031 58.8567 398.017 66.7665 400.855 72.9455C402.53 76.5923 407.549 70.4632 410.832 66.9802C417.216 60.2029 422.812 53.0018 428.733 45.8684C433.748 39.8248 443.169 40.7757 449.275 46.5486L454.34 39.3903L459.32 41.9723C456.251 48.3899 451.065 71.8486 455.007 72.8209C459.438 73.9142 473.607 51.937 477.093 45.9503L483.06 47.033L479.271 66.4282L496.142 40.0064L502.184 41.7693L499.446 65.7872L511.53 46.2495L517.771 48.1263C516.634 55.0425 515.843 67.7281 519.554 72.4612C523.507 77.504 530.789 67.5643 534.318 62.5321C533.897 55.9044 536.264 49.6933 540.492 44.6825C544.944 39.4045 552.832 38.6602 557.801 43.6212C559.487 45.3057 560.364 48.2047 560.164 50.5481C559.373 59.829 549.432 64.3448 541.016 67.4254C541.868 70.8229 544.63 72.8493 548.095 72.86C554.429 72.8814 560.991 67.1725 564.898 62.2258L577.73 45.986L583.22 47.033L580.204 64.9787L596.006 39.9209L601.467 41.9367L601.132 49.8572C600.843 56.7555 600.536 66.3214 604.71 71.667C607.02 74.6265 610.809 74.9612 613.711 72.5395C616.701 70.043 619.054 67.0764 621.467 63.8284C622.512 54.8146 624.283 46.132 626.803 37.2642L617.921 37.5526L617.7 31.8438L628.511 31.4413L628.518 31.4556ZM357.107 29.4114C358.447 26.8151 358.561 22.919 356.886 22.0643C351.158 19.1511 343.22 39.953 342.008 47.6099C348.349 43.9809 353.892 35.6437 357.107 29.4114ZM411.456 22.6305C409.613 21.8292 408.023 24.6498 407.107 27.4847C405.531 32.3495 404.063 37.1253 403.368 42.5884C408.03 38.4181 414.977 24.1583 411.459 22.6305H411.456ZM553.937 51.214C554.304 49.818 554.062 48.4789 553.156 47.4141C551.085 44.9745 546.288 46.1462 543.803 49.7752C541.358 53.3473 539.921 57.4073 539.786 62.0228C545.389 59.9038 552.522 56.5739 553.934 51.214H553.937ZM436.397 64.7757L446.085 51.417C444.588 49.9106 442.795 48.7709 440.856 47.9518C437.092 46.3635 433.395 47.9803 431.535 51.5025C428.234 57.7527 427.033 70.0644 430.137 70.9689C431.199 71.2788 434.707 67.1049 436.397 64.7722V64.7757ZM341.102 91.4076C344.938 86.6318 343.815 77.2939 341.641 71.3678C340.618 69.0601 339.53 66.9553 337.502 65.1675C335.905 72.5395 334.576 79.4058 334.283 86.6603C334.201 88.7366 334.579 91.0515 336.162 92.3763C337.616 93.5907 339.922 92.882 341.106 91.4076H341.102Z" fill="#005EFF"/>
<defs>
<clipPath id="clip0_704_1184">
<rect width="297" height="66" fill="white" transform="translate(0 24.4299)"/>
</clipPath>
</defs>
</svg>
